<?xml version="1.0" encoding="utf-8"?>
<!-- Generator: Adobe Illustrator 24.1.3, SVG Export Plug-In . SVG Version: 6.00 Build 0)  -->
<svg version="1.1" id="twitter" xmlns="http://www.w3.org/2000/svg" xmlns:xlink="http://www.w3.org/1999/xlink" x="0px" y="0px"
	 viewBox="0 0 100 100" style="enable-background:new 0 0 100 100;" xml:space="preserve">
<style type="text/css">
	.st0{fill:#820263;}
	.st1{fill:#FFFFFF;}
</style>
<circle class="st0" cx="50" cy="50" r="48"/>
<path class="st1" d="M50,36.3c-7.6,0-13.7,6.1-13.7,13.7S42.4,63.7,50,63.7S63.7,57.6,63.7,50S57.6,36.3,50,36.3z M50,58.9
	c-4.9,0-8.9-4-8.9-8.9s4-8.9,8.9-8.9s8.9,4,8.9,8.9S54.9,58.9,50,58.9L50,58.9z M67.4,35.8c0,1.8-1.4,3.2-3.2,3.2
	c-1.8,0-3.2-1.4-3.2-3.2c0-1.8,1.4-3.2,3.2-3.2S67.4,34,67.4,35.8z M76.5,39c-0.2-4.3-1.2-8.1-4.3-11.2c-3.1-3.1-6.9-4.1-11.2-4.3
	c-4.4-0.3-17.6-0.3-22,0c-4.3,0.2-8,1.2-11.2,4.3s-4.1,6.9-4.3,11.2c-0.3,4.4-0.3,17.6,0,22c0.2,4.3,1.2,8.1,4.3,11.2
	c3.1,3.1,6.9,4.1,11.2,4.3c4.4,0.3,17.6,0.3,22,0c4.3-0.2,8.1-1.2,11.2-4.3c3.1-3.1,4.1-6.9,4.3-11.2C76.8,56.6,76.8,43.4,76.5,39
	L76.5,39z M70.8,65.7c-0.9,2.3-2.7,4.1-5.1,5.1c-3.5,1.4-11.8,1.1-15.7,1.1s-12.2,0.3-15.7-1.1c-2.3-0.9-4.1-2.7-5.1-5.1
	c-1.4-3.5-1.1-11.8-1.1-15.7s-0.3-12.2,1.1-15.7c0.9-2.3,2.7-4.1,5.1-5.1c3.5-1.4,11.8-1.1,15.7-1.1s12.2-0.3,15.7,1.1
	c2.3,0.9,4.1,2.7,5.1,5.1c1.4,3.5,1.1,11.8,1.1,15.7S72.2,62.2,70.8,65.7z"/>
</svg>
